<!--?xml version="1.0" standalone="no"?-->              <svg id="sw-js-blob-svg" viewBox="0 0 100 100" xmlns="http://www.w3.org/2000/svg">                    <defs>                         <linearGradient id="sw-gradient" x1="0" x2="1" y1="1" y2="0">                            <stop id="stop1" stop-color="rgba(172.543, 55, 248, 1)" offset="0%"></stop>                            <stop id="stop2" stop-color="rgba(90.464, 31, 251, 1)" offset="100%"></stop>                        </linearGradient>                    </defs>                <path fill="url(#sw-gradient)" d="M18.2,-32C23.1,-28.7,26.2,-22.8,29,-17C31.8,-11.3,34.2,-5.6,35.1,0.5C36.1,6.7,35.5,13.5,32.9,19.4C30.2,25.4,25.5,30.6,19.6,34.8C13.8,39,6.9,42.2,0.9,40.6C-5,39,-10,32.5,-16.9,28.9C-23.8,25.3,-32.5,24.5,-37.3,20.2C-42.1,15.9,-42.8,7.9,-41.2,1C-39.5,-6,-35.3,-12,-32.2,-19.2C-29.1,-26.4,-27,-34.8,-21.8,-37.9C-16.6,-41,-8.3,-38.8,-0.8,-37.4C6.7,-35.9,13.3,-35.2,18.2,-32Z" width="80%" height="80%" transform="translate(50 50)" stroke-width="0" style="transition: all 0.3s ease 0s;"></path>              </svg>